<mxfile host="Electron" modified="2025-03-30T20:18:49.069Z" agent="Mozilla/5.0 (Macintosh; Intel Mac OS X 10_15_7) AppleWebKit/537.36 (KHTML, like Gecko) draw.io/21.3.7 Chrome/112.0.5615.204 Electron/24.5.0 Safari/537.36" etag="kLkjpTmDGlL6reGDjdYg" version="21.3.7" type="device">
  <diagram name="Seite-1" id="bKLYDE2-F_yxWjgjX4_Q">
    <mxGraphModel dx="1234" dy="1214" grid="1" gridSize="10" guides="1" tooltips="1" connect="1" arrows="1" fold="1" page="1" pageScale="1" pageWidth="4681" pageHeight="3300" math="0" shadow="0">
      <root>
        <mxCell id="0" />
        <mxCell id="1" parent="0" />
        <mxCell id="7g1ccYtXRPYMS-77a-Ks-2" value="" style="rounded=1;whiteSpace=wrap;html=1;" vertex="1" parent="1">
          <mxGeometry x="170" y="370" width="690" height="530" as="geometry" />
        </mxCell>
        <mxCell id="7g1ccYtXRPYMS-77a-Ks-3" value="POM&lt;br style=&quot;font-size: 18px;&quot;&gt;(Project Object Model)" style="rounded=1;whiteSpace=wrap;html=1;fontSize=18;" vertex="1" parent="1">
          <mxGeometry x="210" y="430" width="230" height="60" as="geometry" />
        </mxCell>
        <mxCell id="7g1ccYtXRPYMS-77a-Ks-4" value="Dependency" style="rounded=1;whiteSpace=wrap;html=1;fontSize=18;" vertex="1" parent="1">
          <mxGeometry x="640" y="430" width="170" height="60" as="geometry" />
        </mxCell>
        <mxCell id="7g1ccYtXRPYMS-77a-Ks-5" value="Build lifecycle &amp;amp; phases" style="rounded=1;whiteSpace=wrap;html=1;fontSize=21;" vertex="1" parent="1">
          <mxGeometry x="210" y="530" width="610" height="110" as="geometry" />
        </mxCell>
        <mxCell id="7g1ccYtXRPYMS-77a-Ks-6" value="Plugin" style="rounded=1;whiteSpace=wrap;html=1;fontSize=15;" vertex="1" parent="1">
          <mxGeometry x="210" y="700" width="70" height="140" as="geometry" />
        </mxCell>
        <mxCell id="7g1ccYtXRPYMS-77a-Ks-7" value="Plugin" style="rounded=1;whiteSpace=wrap;html=1;fontSize=15;" vertex="1" parent="1">
          <mxGeometry x="330" y="700" width="70" height="140" as="geometry" />
        </mxCell>
        <mxCell id="7g1ccYtXRPYMS-77a-Ks-8" value="Plugin" style="rounded=1;whiteSpace=wrap;html=1;fontSize=15;" vertex="1" parent="1">
          <mxGeometry x="440" y="700" width="70" height="140" as="geometry" />
        </mxCell>
        <mxCell id="7g1ccYtXRPYMS-77a-Ks-9" value="Plugin" style="rounded=1;whiteSpace=wrap;html=1;fontSize=15;" vertex="1" parent="1">
          <mxGeometry x="550" y="700" width="70" height="140" as="geometry" />
        </mxCell>
        <mxCell id="7g1ccYtXRPYMS-77a-Ks-10" value="Plugin" style="rounded=1;whiteSpace=wrap;html=1;fontSize=15;" vertex="1" parent="1">
          <mxGeometry x="650" y="700" width="70" height="140" as="geometry" />
        </mxCell>
        <mxCell id="7g1ccYtXRPYMS-77a-Ks-11" value="Plugin" style="rounded=1;whiteSpace=wrap;html=1;fontSize=15;" vertex="1" parent="1">
          <mxGeometry x="750" y="700" width="70" height="140" as="geometry" />
        </mxCell>
      </root>
    </mxGraphModel>
  </diagram>
</mxfile>
